<?xml version="1.0" encoding="utf-8"?>
<!-- Generator: Adobe Illustrator 21.1.0, SVG Export Plug-In . SVG Version: 6.00 Build 0)  -->
<svg version="1.1" id="Layer_1" xmlns="http://www.w3.org/2000/svg" xmlns:xlink="http://www.w3.org/1999/xlink" x="0px" y="0px"
	 viewBox="0 0 256 256" style="enable-background:new 0 0 256 256;" xml:space="preserve">
<style type="text/css">
	.st0{fill:#B4FFF4;}
</style>
<title>rocket</title>
<path class="st0" d="M180.6,187.7l-18.3-30.2c3.4-11.6,6-24.7,6-37.5c0-1.7,0-3.3-0.1-5c-1.9-33.7-14.9-45.8-24.6-55.5
	c-4.6-4.6-8.1-8.5-10.6-14.1v-0.3c1.4-0.2,2.8-0.7,4.1-1.4c1.7-1.1,2.8-3,2.7-5.1l-0.5-1.2c-0.8-0.8-3.1-1.3-6.9-1.4
	c-0.3-2.2-0.3-4.4,0.1-6.5c0.1-1.2,0.1-1.2,1.8-1.4h0.3c0.9,0,1.6-0.5,2-1.3c0.7-1.3-0.2-2.8-0.7-3.7l-0.2-0.3l-0.2-0.6
	c-2.6-6.5-4-11-4-13.5s-0.8-4.1-1.4-4.4c-0.5-0.3-1.1-0.3-1.6,0c-0.3,0.2-1.4,0.8-1.4,4.4c0,1.7-0.7,5.4-4,13.6l-0.2,0.4l-0.2,0.3
	c-0.6,0.8-0.9,1.7-1,2.7c0,0.3,0.1,0.7,0.2,1c0.4,0.8,1.1,1.3,2,1.3h0.3c1.7,0.2,1.7,0.2,1.8,1.4c0.2,1.3,0.3,2.7,0.3,4
	c0,0.8-0.1,1.7-0.2,2.5c-3.8,0.2-6.1,0.6-6.9,1.4l-0.5,1.2c-0.1,2.1,1,4,2.7,5.1c1.3,0.7,2.7,1.2,4.1,1.4v0.3
	c-2.4,5.7-6.5,9.7-11.1,14.3c-9.7,9.7-22.7,21.7-24.6,55.3c-0.1,1.7-0.1,3.3-0.1,5c0,12.8,2.7,25.8,6,37.5l-18.3,30.3l-11.1,64.2
	h12.5l11.7-40.8l19.6-16.4l0,0l0.7,0.3l2.2,0.7c0.3,2,0.7,4.2,1,5.5s0.7,3.5,9.9,4.1v46.6h10.3v-46.6c9.7-0.6,10.1-3.1,10.3-4.1
	s0.6-3.5,1-5.5l2.2-0.7l0.4-0.2l19.5,16.3l11.7,40.8h12.5L180.6,187.7z"/>
</svg>
